<svg viewBox="0 0 128 117" version="1.1" xmlns="http://www.w3.org/2000/svg" xmlns:xlink="http://www.w3.org/1999/xlink">
    <g id="Page-1" stroke="none" stroke-width="1" fill="none" fill-rule="evenodd">
        <g id="PERL_logo" fill="#FF583F">
            <g id="Group" transform="translate(0.500000, 0.000000)">
                <path d="M0,55.2252538 L4.60261053,55.2252538 C6.71529477,55.2252538 8.04827794,55.0114735 8.6016,54.5839064 C9.15492206,54.1563394 9.43157895,53.1125884 9.43157895,51.4526222 L9.43157895,19.0834433 C9.43157895,17.5743831 9.192648,16.5809334 8.71477895,16.1030643 C8.23690989,15.6251953 7.0674058,15.3862643 5.20623158,15.3862643 L0.0754526316,15.3862643 L0.0754526316,8.06735906 L42.0271158,8.06735906 C47.9124505,8.06735906 52.5401656,9.3751916 55.9104,11.9908959 C59.2806344,14.6066002 60.9657263,18.2031397 60.9657263,22.7806222 C60.9657263,27.3078028 59.2554838,31.01752 55.8349474,33.9098854 C52.414411,36.8022507 47.9375996,38.2484117 42.4043789,38.2484117 L25.7293474,38.2484117 L25.7293474,51.4526222 C25.7293474,53.1125884 26.0688808,54.1563394 26.7479579,54.5839064 C27.427035,55.0114735 29.0492503,55.2252538 31.6146526,55.2252538 L37.1981474,55.2252538 L37.1981474,62.4687064 L0,62.4687064 L0,55.2252538 Z M25.7293474,31.0804117 L34.5573053,31.0804117 C36.8208955,31.0804117 38.5059874,30.9169326 39.6126316,30.5899696 C40.7192757,30.2630066 41.9013551,29.4707618 43.1589053,28.2132117 C44.4164554,26.9556615 45.0452211,25.2202684 45.0452211,23.0069801 C45.0452211,20.5924838 44.278127,18.7816388 42.7439158,17.5743906 C41.2097046,16.3671425 39.8767214,15.625199 38.7449263,15.348538 C37.6131312,15.071877 35.8148614,14.9335485 33.3500632,14.9335485 L25.7293474,14.9335485 L25.7293474,31.0804117 Z" id="P"></path>
                <path d="M0,61.9950316 L35.4627368,61.9950316 C40.7444475,61.9950316 44.5547673,62.1459353 46.8938105,62.4477474 C49.2328538,62.7495594 51.3832323,63.4034757 53.3450105,64.4095158 C55.5079968,65.4155559 57.1805134,66.8994428 58.3626105,68.8612211 C59.5447077,70.8229993 60.1357474,72.9608025 60.1357474,75.2746947 C60.1357474,78.4437211 58.9788186,81.1851393 56.6649263,83.4990316 C55.6588862,84.5553737 54.5774093,85.3853444 53.4204632,85.9889684 C52.5150271,86.3913845 50.6538808,87.0453007 47.8369684,87.9507368 C49.7987467,88.5543609 51.2323323,89.1831266 52.1377684,89.8370526 C53.0935065,90.3903747 54.1624081,91.446701 55.3445053,93.0060632 C56.5266024,94.5654253 57.1176421,97.4325967 57.1176421,101.607663 L57.1930947,105.304842 L57.7212632,107.945684 C58.0230752,108.901422 58.7524433,109.379284 59.9093895,109.379284 C61.7705637,109.379284 62.7011368,107.568439 62.7011368,103.946695 L62.7011368,100.928589 L69.1900632,100.928589 L69.1900632,105.380295 C69.1900632,109.002039 68.0331344,111.84406 65.7192421,113.906442 C63.4053498,115.968824 60.1357685,117 55.9104,117 C52.9928837,117 50.4778211,116.509563 48.3651368,115.528674 C46.2524526,114.547785 44.7434151,113.315404 43.8379789,111.831495 C42.9325428,110.347586 42.2786266,108.825973 41.8762105,107.266611 C41.5743985,105.75755 41.4234947,103.368241 41.4234947,100.098611 C41.4234947,96.9295842 40.7444278,94.6911785 39.3862737,93.3833263 C38.0281195,92.1760782 35.6136595,91.5724632 32.1428211,91.5724632 L25.8048,91.5724632 L25.8048,105.380295 C25.8048,106.989959 26.006005,108.021135 26.4084211,108.473853 C26.8108371,108.926571 27.7917115,109.152926 29.3510737,109.152926 L34.8591158,109.152926 L34.8591158,116.396379 L0,116.396379 L0,109.152926 L5.7344,109.152926 C7.39436619,109.152926 8.43811716,108.939146 8.86568421,108.511579 C9.29325126,108.084012 9.50703158,107.040261 9.50703158,105.380295 L9.50703158,73.0111158 C9.50703158,71.5523576 9.28067595,70.5714832 8.82795789,70.0684632 C8.37523984,69.5654431 7.31891356,69.3139368 5.65894737,69.3139368 L0,69.3139368 L0,61.9950316 Z M25.8048,84.6308211 L36.8208842,84.6308211 C38.9838705,84.6308211 40.7569896,83.9391788 42.1402947,82.5558737 C43.5235999,81.1725685 44.2152421,79.3491482 44.2152421,77.0855579 C44.2152421,71.8541493 41.197167,69.2384842 35.1609263,69.2384842 L25.8048,69.2384842 L25.8048,84.6308211 Z" id="R"></path>
                <path d="M56.4990633,12.2910428 L117.238432,12.2910428 L117.238432,32.8141586 L108.938642,32.8141586 L108.938642,29.871506 C108.938642,28.0103318 108.548808,26.3126645 107.769126,24.7784534 C106.989445,23.2442422 105.895393,22.0747381 104.486937,21.269906 C103.480897,20.5656779 102.135338,20.0752407 100.450221,19.7985797 C98.765104,19.5219186 96.514123,19.3835902 93.6972106,19.3835902 L82.3793159,19.3835902 L82.3038633,34.775927 L86.9064738,34.775927 C91.2324463,34.775927 93.3954001,32.5375214 93.3954001,28.0606428 L93.3954001,26.7024955 L100.940663,26.7024955 L100.940663,50.3946218 L93.5463054,50.3946218 L93.5463054,48.508306 C93.5463054,46.4459237 93.0055669,44.8362837 91.9240738,43.6793376 C90.8425807,42.5223914 89.2706665,41.943927 87.2082843,41.943927 L82.3038633,41.943927 L82.3038633,59.2225797 L96.2626001,59.2225797 C98.3752843,59.2225797 99.8843219,59.0968265 100.789758,58.8453165 C102.047308,58.6441085 103.355141,58.1159454 104.713295,57.2608113 C106.071449,56.4056772 107.1152,55.1858718 107.844579,53.6013586 C108.573958,52.0168454 108.938642,49.8916176 108.938642,47.2256113 L109.014095,44.5093165 L117.238432,44.5093165 L117.238432,66.6923902 L56.4990633,66.6923902 L56.4990633,59.4489376 L62.0071054,59.4489376 C63.6167695,59.4489376 64.6856711,59.2100066 65.2138422,58.7321376 C65.7420133,58.2542685 66.0060948,57.2356682 66.0060948,55.676306 L66.0060948,23.307127 C66.0060948,21.7477649 65.7923145,20.7417398 65.3647475,20.2890218 C64.9371804,19.8363037 63.8682788,19.6099481 62.1580106,19.6099481 L56.4990633,19.6099481 L56.4990633,12.2910428 Z" id="E" transform="translate(86.868747, 39.491717) rotate(-330.000000) translate(-86.868747, -39.491717) "></path>
                <path d="M59.8242058,109.454737 L65.332248,109.454737 C66.8413081,109.454737 67.7844566,109.228381 68.1617216,108.775663 C68.5389867,108.322945 68.7276164,107.291769 68.7276164,105.682105 L68.7276164,73.3129263 C68.7276164,71.7032621 68.5264114,70.6972371 68.1239953,70.2948211 C67.8221833,69.842103 66.9167608,69.6157474 65.4077006,69.6157474 L59.8242058,69.6157474 L59.8242058,62.2968421 L80.4630456,62.2968421 L94.3060585,66.6119869 L94.3060585,69.6157474 L88.7980164,69.6157474 C87.3392582,69.6157474 86.3583838,69.842103 85.8553637,70.2948211 C85.3523437,70.7475391 85.1008374,71.7535641 85.1008374,73.3129263 L85.1008374,109.077474 L95.7396585,109.077474 C98.1541548,109.077474 99.7637948,108.951721 100.568627,108.700211 C101.926781,108.499003 103.624448,107.681607 105.66168,106.248 C107.698911,104.814393 108.717511,101.808893 108.717511,97.2314105 L108.792964,94.2133053 L117.394564,94.2133053 L117.394564,116.698189 L59.8242058,116.698189 L59.8242058,109.454737 Z" id="L"></path>
            </g>
        </g>
    </g>
</svg>